<svg xmlns="http://www.w3.org/2000/svg" version="1.1" xmlns:xlink="http://www.w3.org/1999/xlink" width="512" height="512" x="0" y="0" viewBox="0 0 78.917 78.917" style="enable-background:new 0 0 512 512" xml:space="preserve" class=""><g><path d="M32.501 16.458H9.021L9 66.958c0 2.48-2.019 4.5-4.5 4.5s-4.5-2.02-4.5-4.5l.025-55.005a4.506 4.506 0 0 1 4.5-4.495h27.977c13.51 0 24.5 10.991 24.5 24.5v23c0 2.48-2.02 4.5-4.5 4.5s-4.5-2.02-4.5-4.5v-23c-.001-8.546-6.954-15.5-15.501-15.5zm41.916-9a4.505 4.505 0 0 0-4.5 4.5l-.021 50.5h-23.48c-8.547 0-15.5-6.953-15.5-15.5v-23c0-2.481-2.019-4.5-4.5-4.5s-4.5 2.019-4.5 4.5v23c0 13.509 10.99 24.5 24.5 24.5h27.977a4.505 4.505 0 0 0 4.5-4.495l.024-55.005c0-2.48-2.019-4.5-4.5-4.5z" fill="#000000" opacity="1" data-original="#000000" class=""></path></g></svg> 